<?xml version="1.0" encoding="UTF-8" standalone="no"?>
<svg
   xmlns:svg="http://www.w3.org/2000/svg"
   xmlns="http://www.w3.org/2000/svg"
   viewBox="455 380 290 265"
   xml:space="preserve"
   id="svg2"
   version="1.1"
   height="70"
   width="70"
>
<g
     transform="matrix(1.3333333,0,0,-1.3333333,0,1040)"
     id="g10">
<g
       id="g20">
    <g
           transform="translate(448.4448,311.4805)"
           id="g28">
      <path
             id="path30"
             style="fill:#ffffff;fill-opacity:1;fill-rule:evenodd;stroke:none"
             d="m 0,0 -32.845,16.578 -63.189,-0.314 1.564,123.562 c 0,0 76.014,1.252 82.269,-1.564 6.257,-2.816 11.262,-5.631 11.262,-5.631 0,0 -0.61,37.106 25.023,40.353 25.637,3.246 72.259,-2.816 72.259,-2.816 L 97.594,44.73 c 0,0 -71.945,4.067 -84.772,-2.814 C -0.002,35.033 4.064,23.146 4.064,23.146 Z" />
    </g>
    <g
           transform="translate(355.3794,350.6016)"
           id="g32">
      <path
             id="path34"
             style="fill:#abc4f0;fill-opacity:1;fill-rule:evenodd;stroke:none"
             d="m 0,0 h 94.78 l -0.313,20.629 c 0,0 6.257,11.889 36.285,11.889 h 59.634 L 190.66,5.609 105.888,2.795 c 0,0 -8.364,-4.693 -9.297,-15.926 -0.934,-11.236 -3.526,-25.99 -3.526,-25.99 0,0 -28.615,14.443 -30.729,15.51 -2.116,1.068 -65.305,0.754 -65.305,0.754 z" />
    </g>
    <g
           transform="translate(518.4268,410.4971)"
           id="g36">
      <path
             id="path38"
             style="fill:#263059;fill-opacity:1;fill-rule:nonzero;stroke:none"
             d="m 0,0 c 3.316,0 6.005,-2.688 6.005,-6.006 0,-3.317 -2.689,-6.007 -6.005,-6.007 h -42.261 c -3.319,0 -6.008,2.69 -6.008,6.007 0,3.318 2.689,6.006 6.008,6.006 z m -137.228,-41.651 c -3.32,0 -6.008,2.689 -6.008,6.005 0,3.317 2.688,6.006 6.008,6.006 h 42.26 c 3.317,0 6.006,-2.689 6.006,-6.006 0,-3.316 -2.689,-6.005 -6.006,-6.005 z M 0,24.86 c 3.316,0 6.005,-2.689 6.005,-6.006 0,-3.316 -2.689,-6.005 -6.005,-6.005 h -42.261 c -3.319,0 -6.008,2.689 -6.008,6.005 0,3.317 2.689,6.006 6.008,6.006 z m -137.228,-41.65 c -3.32,0 -6.008,2.687 -6.008,6.005 0,3.317 2.688,6.007 6.008,6.007 h 42.26 c 3.317,0 6.006,-2.69 6.006,-6.007 0,-3.318 -2.689,-6.005 -6.006,-6.005 z M 0,49.721 c 3.316,0 6.005,-2.689 6.005,-6.006 0,-3.317 -2.689,-6.007 -6.005,-6.007 h -42.261 c -3.319,0 -6.008,2.69 -6.008,6.007 0,3.317 2.689,6.006 6.008,6.006 z M -137.228,8.071 c -3.32,0 -6.008,2.687 -6.008,6.005 0,3.317 2.688,6.006 6.008,6.006 h 42.26 c 3.317,0 6.006,-2.689 6.006,-6.006 0,-3.318 -2.689,-6.005 -6.006,-6.005 z m 74.618,15.014 0.002,-0.059 v -75.17 c 7.735,3.899 18.527,4.686 30.291,4.686 2.209,0 6.272,-0.08 10.372,-0.158 2.909,-0.057 5.858,-0.115 10.508,-0.115 H 21.836 V 65.055 h -33.273 c -4.115,0 -9.098,0.18 -13.993,0.355 -4.066,0.147 -8.066,0.291 -12.634,0.291 -13.747,0 -24.546,-1.841 -24.546,-13.035 z m -96.457,12.332 V -77.37 h 33.273 c 2.204,0 6.598,-0.018 14.254,-0.061 4.411,-0.023 8.702,-0.062 12.894,-0.119 0.226,0.01 0.454,0.006 0.683,-0.01 l 0.079,-0.002 c 1.693,-0.021 3.214,-0.742 4.289,-1.884 l 18.974,-11.621 v 17.086 0.052 0.164 0.02 0.023 0.016 0.023 0.02 1.424 0.008 0.009 0.006 0.01 0.008 0.064 95.207 c -0.031,11.153 -10.819,12.989 -24.546,12.989 -4.57,0 -8.57,-0.144 -12.637,-0.291 -4.893,-0.174 -9.876,-0.354 -13.99,-0.354 z m 86.961,-142.074 -28.021,17.16 c -3.784,0.047 -7.597,0.082 -11.458,0.101 -1.603,0.01 -6.672,0.014 -14.209,0.014 h -39.279 c -3.317,0 -6.006,2.69 -6.006,6.006 v 124.8 l 0.002,0.154 v 10e-4 l 0.005,0.153 v 10e-4 l 0.009,0.151 v 10e-4 l 0.013,0.153 v 0.001 l 0.018,0.149 0.022,0.149 v 10e-4 l 0.024,0.149 0.029,0.147 0.031,0.146 0.034,0.145 0.04,0.143 0.044,0.142 0.044,0.14 0.049,0.138 v 10e-4 l 0.052,0.136 v 10e-4 l 0.054,0.135 v 10e-4 l 0.062,0.133 v 10e-4 l 0.061,0.132 0.062,0.13 v 10e-4 l 0.07,0.128 0.071,0.126 v 0.001 l 0.075,0.123 v 10e-4 l 0.075,0.123 v 10e-4 l 0.08,0.119 v 10e-4 l 0.083,0.118 0.084,0.117 0.088,0.114 v 10e-4 l 0.09,0.112 0.093,0.11 0.096,0.107 v 0.001 l 0.097,0.105 v 10e-4 l 0.102,0.102 0.104,0.101 v 10e-4 l 0.106,0.097 v 10e-4 l 0.105,0.095 0.11,0.093 v 10e-4 l 0.115,0.09 0.114,0.087 v 0.001 l 0.115,0.084 v 0.001 l 0.12,0.081 v 0.002 l 0.12,0.078 v 0.001 l 0.124,0.076 v 10e-4 l 0.125,0.073 0.126,0.071 v 0.001 l 0.128,0.067 0.13,0.064 v 10e-4 l 0.133,0.061 0.134,0.059 v 0.001 l 0.134,0.054 v 0.001 l 0.139,0.051 v 0.001 l 0.139,0.049 0.142,0.044 v 0.002 l 0.14,0.04 v 0.002 l 0.143,0.037 v 10e-4 l 0.143,0.035 0.148,0.031 v 0.002 l 0.148,0.027 v 0.001 l 0.148,0.023 v 10e-4 l 0.15,0.02 v 10e-4 l 0.149,0.017 0.152,0.013 v 10e-4 l 0.155,0.009 v 0.001 l 0.154,0.004 v 10e-4 l 0.154,0.001 v 10e-4 l 0.053,-10e-4 h 39.226 c 5.034,0 9.34,0.154 13.569,0.307 4.741,0.171 9.398,0.338 13.058,0.338 9.526,0 18.097,-0.767 24.546,-3.751 v 8.343 c 0,21.51 16.082,25.046 36.557,25.046 3.658,0 8.317,-0.167 13.058,-0.337 4.229,-0.151 8.535,-0.307 13.569,-0.307 h 39.278 c 3.317,0 6.009,-2.689 6.009,-6.005 v -124.8 c 0,-3.317 -2.692,-6.006 -6.009,-6.006 h -39.278 c -2.38,0 -6.55,0.082 -10.693,0.16 -2.852,0.057 -5.684,0.111 -10.187,0.111 -16.461,0 -30.26,-1.631 -30.291,-14.414 v -27.886 c 0,-3.317 -2.69,-6.006 -6.008,-6.006 -1.3,0 -2.508,0.414 -3.49,1.121" />
    </g>
</g>
</g>
</svg>