<svg width="57" height="50" viewBox="0 0 57 50" fill="none" xmlns="http://www.w3.org/2000/svg">
    <path d="M34.0833 14V8.5C34.0833 7.04131 33.4951 5.64236 32.448 4.61091C31.4009 3.57946 29.9808 3 28.5 3H8.95833C7.47754 3 6.0574 3.57946 5.01032 4.61091C3.96324 5.64236 3.375 7.04131 3.375 8.5V41.5C3.375 42.9587 3.96324 44.3576 5.01032 45.3891C6.0574 46.4205 7.47754 47 8.95833 47H28.5C29.9808 47 31.4009 46.4205 32.448 45.3891C33.4951 44.3576 34.0833 42.9587 34.0833 41.5V36" stroke="black" stroke-opacity="0.69" stroke-width="6" stroke-linecap="round" stroke-linejoin="round"/>
    <path d="M14.5417 25H53.6251M53.6251 25L45.2501 16.75M53.6251 25L45.2501 33.25" stroke="black" stroke-opacity="0.69" stroke-width="6" stroke-linecap="round" stroke-linejoin="round"/>
</svg>
